<?xml version="1.0" standalone="no"?>
<!DOCTYPE svg PUBLIC "-//W3C//DTD SVG 20010904//EN"
 "http://www.w3.org/TR/2001/REC-SVG-20010904/DTD/svg10.dtd">
<svg version="1.0" xmlns="http://www.w3.org/2000/svg"
 width="765.000000pt" height="660.000000pt" viewBox="0 0 765.000000 660.000000"
 preserveAspectRatio="xMidYMid meet">

<g transform="translate(0.000000,660.000000) scale(0.100000,-0.100000)"
fill="#000000" stroke="none">
<path d="M5620 5994 c-63 -36 -126 -79 -140 -96 l-26 -30 -27 39 -27 38 0 -43
c0 -41 -2 -44 -60 -80 -33 -20 -83 -50 -112 -66 -50 -27 -52 -29 -30 -39 17
-8 33 -5 72 13 28 13 50 27 50 31 0 7 54 29 71 29 5 0 9 -18 9 -39 0 -38 3
-41 55 -69 l54 -30 3 55 3 54 52 -28 c95 -50 228 -127 233 -133 5 -6 25 -17
115 -63 22 -12 42 -24 45 -28 3 -3 23 -16 45 -28 22 -12 63 -35 90 -51 28 -16
59 -34 70 -40 11 -5 49 -28 85 -50 36 -22 83 -49 105 -60 22 -11 63 -33 90
-50 258 -153 310 -182 319 -172 4 3 6 -327 4 -735 -3 -706 -2 -742 15 -747 14
-3 16 -11 11 -33 l-6 -28 34 37 c30 33 35 35 53 22 10 -8 30 -14 43 -14 29 0
82 30 82 46 0 24 -48 80 -88 102 l-42 23 0 683 0 683 -47 30 c-27 16 -100 59
-163 95 -112 63 -226 129 -675 389 -121 70 -271 156 -332 191 -62 35 -113 66
-113 70 0 5 162 103 192 116 4 2 56 -24 115 -59 153 -88 263 -152 458 -264
204 -117 296 -171 520 -300 94 -54 189 -109 213 -123 l42 -24 0 -988 0 -988
31 -4 c17 -3 33 0 35 6 2 6 3 461 2 1011 l-3 1000 -110 64 c-126 73 -299 173
-530 306 -88 51 -221 127 -295 170 -142 82 -266 154 -387 223 -40 23 -76 42
-80 42 -4 0 -60 -30 -123 -66z"/>
<path d="M4030 4625 c-20 -32 -21 -37 -7 -48 12 -9 14 -21 8 -54 -8 -43 1 -59
14 -25 6 16 7 16 16 0 6 -11 4 -30 -7 -57 -20 -50 -14 -68 28 -85 l32 -14 -74
-22 c-81 -24 -154 -65 -144 -81 3 -6 9 -8 12 -5 3 3 14 -8 24 -24 47 -78 -2
-382 -65 -403 -7 -2 -29 0 -50 5 -34 7 -46 4 -105 -29 -37 -20 -69 -39 -72
-42 -3 -3 -13 -11 -23 -16 -16 -8 -19 -25 -22 -95 -1 -47 -6 -98 -10 -114 l-8
-28 49 27 c27 15 59 34 71 41 56 34 115 65 118 62 6 -5 -15 -147 -25 -173 -5
-14 -50 -46 -119 -86 l-111 -64 0 -43 c0 -40 2 -43 23 -36 42 13 95 53 102 76
17 62 45 84 45 36 0 -16 5 -19 24 -14 17 4 26 1 30 -10 3 -9 6 -110 6 -225 l0
-210 -45 7 c-66 9 -55 -21 22 -60 64 -32 66 -29 91 117 71 404 71 407 93 407
5 0 9 -18 9 -39 0 -34 6 -90 36 -359 l6 -53 -49 7 -48 7 23 -25 c28 -31 95
-63 116 -55 16 6 19 37 36 345 12 220 23 261 95 357 36 48 45 67 45 101 0 32
5 45 23 57 l22 15 -24 88 c-32 117 -35 167 -16 234 44 157 47 174 40 225 -9
73 -23 88 -84 95 l-51 5 35 53 c50 77 63 124 41 157 -10 15 -37 35 -60 46 -23
10 -54 28 -68 39 l-26 20 -22 -35z"/>
<path d="M5016 3722 c-3 -5 -19 -12 -36 -15 -16 -4 -30 -13 -30 -20 0 -22 27
-52 46 -52 14 0 20 -10 25 -38 3 -21 13 -46 23 -55 15 -15 16 -14 16 12 0 46
28 26 50 -36 19 -53 78 -25 87 41 7 50 -20 126 -50 145 -27 17 -124 30 -131
18z"/>
<path d="M6760 3500 c0 -5 5 -10 10 -10 6 0 10 5 10 10 0 6 -4 10 -10 10 -5 0
-10 -4 -10 -10z"/>
<path d="M4875 3099 c-27 -33 -51 -64 -53 -68 -1 -5 10 -11 25 -14 15 -4 37
-9 49 -13 19 -5 22 0 33 53 6 32 14 68 17 81 11 40 -19 24 -71 -39z"/>
<path d="M4605 2990 c-7 -33 -1 -139 17 -267 9 -63 15 -84 28 -88 26 -8 63
-102 61 -153 -2 -37 1 -43 16 -40 16 3 18 12 14 77 -3 66 -1 73 14 67 9 -3 21
-6 26 -6 5 0 9 -38 9 -85 0 -68 4 -93 23 -127 l22 -43 3 194 c2 158 0 201 -13
227 -15 32 -19 54 -10 54 2 0 27 -14 55 -30 87 -52 181 -60 265 -24 31 13 100
72 93 79 -2 2 -21 0 -43 -5 -87 -20 -158 -6 -213 44 -20 19 -52 37 -70 41 -29
6 -155 55 -254 98 l-36 17 -7 -30z m160 -146 c24 -15 25 -21 25 -111 0 -93 0
-94 -22 -87 -13 4 -26 12 -30 18 -9 13 -11 196 -3 196 3 0 17 -7 30 -16z"/>
<path d="M6880 2977 c-44 -20 -157 -29 -205 -17 -45 11 -8 -84 78 -199 l40
-54 13 31 c13 33 66 72 97 72 14 0 17 10 17 66 l0 65 94 -7 93 -7 7 28 c4 15
6 29 4 30 -2 1 -46 5 -98 7 -80 4 -102 2 -140 -15z"/>
<path d="M3402 2824 c-31 -21 -28 -31 16 -52 42 -22 109 -40 80 -22 -12 8 -18
24 -18 50 0 37 -2 40 -28 40 -15 0 -38 -7 -50 -16z"/>
<path d="M3665 2743 c-67 -12 -67 -13 -60 -41 10 -44 27 -55 53 -36 26 18 47
64 35 74 -4 4 -17 5 -28 3z"/>
<path d="M3537 2720 c8 -29 25 -37 21 -9 -1 12 -8 24 -15 26 -7 3 -9 -3 -6
-17z"/>
<path d="M4323 2330 c2 -171 5 -211 20 -244 9 -22 20 -37 23 -33 3 3 5 92 4
197 -1 183 -2 194 -25 239 l-25 46 3 -205z"/>
<path d="M3403 2263 c-13 -2 -23 -7 -23 -10 0 -7 43 -42 53 -43 4 0 7 14 7 30
0 17 -3 29 -7 29 -5 -1 -18 -4 -30 -6z"/>
<path d="M3850 2058 c0 -201 1 -207 25 -249 l25 -44 0 200 c0 194 -1 202 -25
249 l-25 49 0 -205z"/>
<path d="M3130 2200 c-12 -7 -15 -31 -13 -122 2 -119 29 -368 41 -380 4 -4 23
-9 42 -10 32 -3 35 -1 35 24 0 14 3 29 6 32 4 4 36 1 73 -6 62 -12 66 -14 66
-40 0 -23 4 -28 26 -28 23 0 25 3 24 38 -1 20 -2 72 -1 114 l1 78 26 -10 c48
-19 93 -9 200 42 45 21 104 90 104 121 0 12 -8 12 -57 1 -71 -17 -155 -18
-225 -3 -44 10 -62 21 -108 67 -30 31 -60 55 -67 54 -7 -2 -27 4 -46 12 -48
20 -109 28 -127 16z m167 -207 c18 -15 22 -31 25 -98 l3 -80 -43 -3 c-28 -2
-44 1 -46 10 -2 7 -7 59 -10 116 l-6 103 27 -15 c16 -9 38 -23 50 -33z"/>
<path d="M5378 2155 c-31 -21 -38 -22 -48 -10 -16 19 -67 19 -100 1 -14 -7
-88 -50 -165 -93 -77 -44 -237 -135 -355 -203 -118 -67 -221 -127 -228 -133
-10 -8 -2 -15 32 -30 45 -19 46 -19 83 0 21 10 57 31 80 46 24 15 45 27 49 27
3 0 18 8 32 19 15 10 52 32 82 48 64 35 207 115 298 167 35 20 66 36 68 36 2
0 28 16 58 35 30 19 60 35 66 35 5 0 10 5 10 10 0 15 27 12 33 -4 7 -18 -7
-27 -213 -139 -30 -16 -59 -33 -65 -37 -11 -9 -54 -32 -135 -76 -30 -16 -57
-32 -60 -35 -5 -6 -223 -130 -293 -167 -27 -14 -29 -17 -21 -61 4 -25 6 -59 5
-74 l-1 -29 32 20 c18 11 65 37 103 59 353 200 644 369 663 387 21 18 23 27
18 67 -6 44 -5 46 29 62 42 20 48 57 13 81 -29 20 -27 20 -70 -9z"/>
<path d="M2617 1660 c-75 -42 -145 -84 -156 -94 -19 -17 -20 -17 -31 3 -6 12
-17 21 -25 21 -8 0 -15 7 -15 15 0 21 -40 35 -66 23 -19 -9 -20 -14 -11 -39
12 -30 32 -43 49 -33 6 4 5 10 -3 15 -7 4 -11 10 -8 14 3 3 18 -4 32 -15 18
-15 27 -17 30 -8 2 9 4 8 3 -1 -1 -10 -17 -16 -49 -18 -53 -5 -85 11 -67 32 5
6 7 15 4 18 -7 7 -74 -58 -74 -73 0 -5 9 -10 20 -10 13 0 18 5 14 15 -4 10 0
15 15 15 12 0 20 -3 19 -7 -4 -21 15 -40 35 -37 l22 5 -21 -10 c-23 -10 -40
-31 -27 -32 4 0 19 -2 33 -5 24 -4 25 -3 5 12 -20 16 -20 16 0 12 33 -8 61 33
33 46 -7 3 -4 5 7 3 11 -1 27 3 35 8 24 15 43 16 68 3 20 -10 29 -9 55 6 18
10 79 46 137 78 172 98 168 94 107 107 -30 7 -48 0 -170 -69z m-249 -53 c1 -4
0 -7 -3 -7 -3 0 -12 0 -20 0 -8 0 -15 4 -15 8 0 10 34 9 38 -1z"/>
<path d="M696 1695 c-9 -14 -21 -25 -27 -25 -7 0 -6 6 2 17 13 15 12 15 -7 3
-11 -7 -21 -18 -21 -24 -1 -6 -4 -25 -8 -42 -8 -36 -71 15 528 -433 142 -107
256 -199 254 -205 -2 -6 -34 -29 -72 -50 -63 -36 -67 -40 -47 -49 12 -6 22
-16 22 -24 0 -19 2 -18 91 33 80 47 107 54 144 39 18 -7 19 -7 3 6 -11 8 -14
19 -10 26 4 7 158 99 342 204 443 253 455 260 438 270 -7 5 -17 9 -23 9 -5 0
-3 -5 5 -10 8 -5 11 -10 6 -10 -5 0 -18 7 -27 16 -17 16 -36 7 -296 -141 -153
-87 -335 -191 -405 -232 -69 -40 -130 -73 -133 -73 -9 0 -187 159 -203 182 -8
10 -21 17 -30 16 -11 -2 -16 3 -14 13 1 10 -5 15 -20 15 -18 -1 -24 5 -26 26
-2 20 -7 25 -19 21 -12 -5 -15 -2 -10 10 3 9 2 17 -2 17 -5 0 -24 14 -41 30
-23 22 -36 28 -44 20 -15 -15 -36 -12 -36 4 0 8 -7 16 -15 20 -8 3 -12 12 -9
21 5 12 9 13 20 4 8 -6 14 -9 14 -5 0 11 -34 46 -45 46 -6 0 -5 -3 2 -8 8 -5
8 -12 -3 -26 -7 -11 -17 -16 -21 -12 -4 4 -3 10 3 14 12 8 14 52 2 52 -4 0 -8
-8 -9 -17 0 -11 -3 -13 -6 -5 -6 15 -33 16 -33 0 0 -9 -3 -9 -12 0 -14 14 -7
23 21 25 11 1 21 6 21 12 0 11 -50 52 -57 47 -8 -5 -32 32 -27 40 11 17 -21 7
-43 -14 -13 -12 -23 -16 -23 -9 0 7 -7 10 -19 6 -10 -3 -23 1 -30 9 -16 19 2
30 28 17 14 -8 22 -7 31 4 6 7 19 11 28 8 14 -4 15 -3 2 5 -8 6 -17 9 -20 7
-3 -2 -23 21 -44 51 -22 30 -43 54 -48 54 -5 0 -6 5 -3 10 14 22 -4 8 -19 -15z
m37 -39 c9 0 17 -5 16 -11 0 -5 -7 -9 -15 -7 -8 2 -14 -4 -14 -12 0 -8 13 -17
30 -21 17 -4 30 -10 30 -15 0 -4 -9 -6 -20 -3 -11 3 -28 -1 -37 -8 -15 -12
-16 -12 -10 5 10 26 -11 48 -37 40 -21 -7 -21 -7 -2 15 20 22 20 22 0 15 -15
-5 -16 -4 -4 5 8 6 22 8 30 5 8 -3 23 -7 33 -8z m114 -152 c15 -4 20 -11 16
-22 -5 -12 -2 -14 13 -8 16 6 17 5 6 -6 -11 -11 -16 -10 -26 5 -7 9 -18 17
-24 17 -6 0 -14 5 -17 10 -7 11 1 12 32 4z m273 -216 c0 -13 -46 13 -58 32
-10 16 -7 16 23 -3 19 -12 34 -25 35 -29z"/>
<path d="M2275 1480 c3 -5 12 -7 20 -3 21 7 19 13 -6 13 -11 0 -18 -4 -14 -10z"/>
<path d="M1035 1369 c-11 -17 1 -21 15 -4 8 9 8 15 2 15 -6 0 -14 -5 -17 -11z"/>
<path d="M1650 889 c0 -5 5 -7 10 -4 6 3 10 8 10 11 0 2 -4 4 -10 4 -5 0 -10
-5 -10 -11z"/>
<path d="M1840 805 c14 -8 30 -14 35 -14 6 0 -1 6 -15 14 -14 8 -29 14 -35 14
-5 0 1 -6 15 -14z"/>
<path d="M2000 740 c0 -5 5 -10 11 -10 5 0 7 5 4 10 -3 6 -8 10 -11 10 -2 0
-4 -4 -4 -10z"/>
<path d="M2180 656 c0 -2 7 -7 16 -10 8 -3 12 -2 9 4 -6 10 -25 14 -25 6z"/>
<path d="M2247 629 c7 -7 15 -10 18 -7 3 3 -2 9 -12 12 -14 6 -15 5 -6 -5z"/>
<path d="M2829 607 c-76 -44 -115 -74 -107 -82 7 -7 132 60 178 95 43 33 -6
24 -71 -13z"/>
<path d="M2441 546 c2 -2 15 -9 29 -15 24 -11 24 -11 6 3 -16 13 -49 24 -35
12z"/>
<path d="M2555 490 c-3 -6 1 -7 9 -4 18 7 21 14 7 14 -6 0 -13 -4 -16 -10z"/>
<path d="M2620 490 c-10 -6 -6 -9 18 -8 17 1 29 5 26 10 -7 11 -25 10 -44 -2z"/>
<path d="M3591 284 c-17 -14 -31 -31 -31 -38 0 -14 91 -49 101 -39 9 10 -19
103 -31 103 -4 0 -22 -12 -39 -26z"/>
</g>
</svg>
